<?xml version="1.0" encoding="UTF-8"?>
<svg id="Layer_2" data-name="Layer 2" xmlns="http://www.w3.org/2000/svg" viewBox="0 0 15.46 15.46">
  <defs>
    <style>
      .cls-1 {
        fill: #2fc1d5;
      }

      .cls-2 {
        fill: none;
        stroke: #2fc1d5;
        stroke-miterlimit: 10;
      }
    </style>
  </defs>
  <g id="Layer_1-2" data-name="Layer 1">
    <g>
      <circle class="cls-2" cx="7.73" cy="7.73" r="7.23"/>
      <g>
        <path class="cls-1" d="M12.9,10.22c-.87,1.2-2.26,1.88-3.7,1.84,.3-.33,.48-.76,.48-1.24,0-.89-.64-1.64-1.47-1.79-.27-.43-.74-.7-1.26-.7-.12,0-.24,.01-.36,.04-.36-.35-.85-.55-1.35-.55-.12,0-.24,.01-.36,.03-.05-.67,.04-1.37,.3-2.04,.75-1.96,2.68-3.09,4.64-2.87-.83,1.16-1,2.88-.32,4.48,.68,1.6,2.03,2.64,3.41,2.81Zm-4.98-.76c-.16-.39-.53-.67-.97-.67-.18,0-.34,.05-.49,.12-.27-.38-.72-.63-1.22-.63-.71,0-1.31,.5-1.47,1.18-.68,.05-1.22,.63-1.22,1.34s.57,1.33,1.28,1.35h0s4.13,0,4.13,0h0c.7-.03,1.26-.62,1.26-1.35s-.58-1.34-1.3-1.35Z"/>
        <g>
          <polygon class="cls-1" points="12.12 7.14 11.52 6.81 10.92 7.14 11.03 6.45 10.55 5.97 11.22 5.87 11.52 5.24 11.82 5.87 12.49 5.97 12.01 6.45 12.12 7.14"/>
          <polygon class="cls-1" points="4.47 5.89 4.17 5.73 3.88 5.89 3.93 5.55 3.69 5.31 4.03 5.26 4.17 4.95 4.32 5.26 4.66 5.31 4.41 5.55 4.47 5.89"/>
          <polygon class="cls-1" points="3.45 8.07 3.09 7.87 2.72 8.07 2.79 7.65 2.49 7.35 2.9 7.29 3.09 6.91 3.27 7.29 3.68 7.35 3.38 7.65 3.45 8.07"/>
        </g>
      </g>
    </g>
  </g>
</svg>